<svg xmlns="http://www.w3.org/2000/svg" width="16" height="18" fill="none"><path fill="#2D3748" fill-opacity=".32" d="M3.833 9H5.5v1.667H3.833V9ZM15.5 4v11.667a1.667 1.667 0 0 1-1.667 1.666H2.167c-.925 0-1.667-.75-1.667-1.666V4a1.667 1.667 0 0 1 1.667-1.667H3V.667h1.667v1.666h6.666V.667H13v1.666h.833A1.666 1.666 0 0 1 15.5 4ZM2.167 5.667h11.666V4H2.167v1.667Zm11.666 10V7.333H2.167v8.334h11.666Zm-3.333-5V9h1.667v1.667H10.5Zm-3.333 0V9h1.666v1.667H7.167Zm-3.334 1.666H5.5V14H3.833v-1.667ZM10.5 14v-1.667h1.667V14H10.5Zm-3.333 0v-1.667h1.666V14H7.167Z"/></svg>